<svg data-v-423bf9ae="" xmlns="http://www.w3.org/2000/svg" viewBox="0 0 446 112" class="iconLeft"><!----><!----><!----><g data-v-423bf9ae="" id="b68c5fcf-e7fc-4eb2-98f3-94e649f180e5" fill="#000000" transform="matrix(4.762790679931641,0,0,4.762790679931641,126.28817749023438,6.597417831420898)"><path d="M1.01 3.98L1.01 13.78L7.34 13.78L7.34 12.49L2.41 12.49L2.41 9.51L6.89 9.51L6.89 8.22L2.41 8.22L2.41 5.26L7.28 5.26L7.28 3.98ZM8.37 6.83L10.95 10.21L8.26 13.78L9.84 13.78L11.79 11.05L11.96 11.05L13.90 13.78L15.48 13.78L12.80 10.21L15.37 6.83L13.80 6.83L11.96 9.39L11.79 9.39L9.94 6.83ZM16.60 8.64L17.74 9.16C18.06 8.36 18.72 7.81 19.84 7.81C20.96 7.81 21.62 8.37 21.62 9.31L21.62 9.51L19.08 9.74C17.32 9.91 16.46 10.63 16.46 11.87C16.46 13.10 17.46 13.97 19.00 13.97C20.41 13.97 21.13 13.31 21.42 12.70L21.62 12.70L21.62 13.78L22.90 13.78L22.90 9.37C22.90 7.71 21.71 6.64 19.87 6.64C18.19 6.64 17.09 7.57 16.60 8.64ZM17.79 11.82C17.79 11.12 18.42 10.84 19.22 10.77L21.62 10.54L21.62 10.72C21.62 11.91 20.83 12.88 19.22 12.88C18.31 12.88 17.79 12.46 17.79 11.82ZM24.78 6.83L24.78 13.78L26.10 13.78L26.10 9.41C26.10 8.37 26.78 7.84 27.66 7.84C28.46 7.84 29.01 8.29 29.01 9.09L29.01 13.78L30.32 13.78L30.32 9.41C30.32 8.37 30.97 7.84 31.82 7.84C32.63 7.84 33.24 8.29 33.24 9.09L33.24 13.78L34.55 13.78L34.55 9.00C34.55 7.59 33.45 6.72 32.23 6.72C31.11 6.72 30.52 7.29 30.24 7.87L30.04 7.87C29.71 7.24 29.13 6.72 28.14 6.72C27.23 6.72 26.61 7.14 26.26 7.73L26.07 7.73L26.07 6.83ZM36.43 16.58L37.74 16.58L37.74 12.68L37.91 12.68C38.29 13.31 38.92 13.97 40.26 13.97C42.07 13.97 43.48 12.46 43.48 10.30C43.48 8.15 42.07 6.64 40.26 6.64C38.92 6.64 38.29 7.29 37.91 7.92L37.72 7.92L37.72 6.83L36.43 6.83ZM39.93 12.80C38.58 12.80 37.74 11.84 37.74 10.30C37.74 8.76 38.58 7.81 39.93 7.81C41.24 7.81 42.17 8.71 42.17 10.30C42.17 11.90 41.24 12.80 39.93 12.80ZM46.31 3.98L45.00 3.98L45.00 13.78L46.31 13.78ZM47.82 10.25C47.82 12.35 49.28 13.97 51.41 13.97C53.05 13.97 53.93 13.06 54.45 12.22L53.34 11.59C52.98 12.32 52.39 12.82 51.38 12.82C50.15 12.82 49.28 12.04 49.20 10.78L54.71 10.78L54.71 10.12C54.71 8.11 53.31 6.64 51.30 6.64C49.31 6.64 47.82 8.20 47.82 10.25ZM49.20 9.72C49.29 8.47 50.09 7.78 51.30 7.78C52.50 7.78 53.31 8.51 53.34 9.72ZM56.25 3.98L56.25 13.78L57.65 13.78L57.65 3.98ZM59.00 3.98L61.89 8.74L61.89 8.93L58.94 13.78L60.58 13.78L62.86 9.91L63.14 9.91L65.42 13.78L67.06 13.78L64.11 8.93L64.11 8.74L67.00 3.98L65.38 3.98L63.14 7.76L62.86 7.76L60.62 3.98Z"></path></g><defs data-v-423bf9ae=""><linearGradient data-v-423bf9ae="" gradientTransform="rotate(25)" id="7f00c353-571d-4eb9-b797-6819938b6ec7" x1="0%" y1="0%" x2="100%" y2="0%"><stop data-v-423bf9ae="" offset="0%" style="stop-color: rgb(112, 36, 61); stop-opacity: 1;"></stop><stop data-v-423bf9ae="" offset="100%" style="stop-color: rgb(193, 87, 103); stop-opacity: 1;"></stop></linearGradient></defs><g data-v-423bf9ae="" id="dfdb6a72-900d-45da-89f4-a0912144e6ac" transform="matrix(1.1111111640930176,0,0,1.1111111640930176,0.4466119408607483,0.4444417953491211)" stroke="none" fill="url(#7f00c353-571d-4eb9-b797-6819938b6ec7)"><g><path d="M93.917 71.206a48.9 48.9 0 0 1-9.019 12.835l-6.358-6.357a39.821 39.821 0 0 0 7.479-10.792h-.001c2.37-5.044 3.657-10.572 3.743-16.298h9.015a48.519 48.519 0 0 1-4.859 20.612l1.09.593c3.259-6.713 4.989-14.126 4.989-21.808 0-6.533-1.253-12.87-3.631-18.75a49.874 49.874 0 0 0-11.014-16.604A49.904 49.904 0 0 0 68.677 3.595l-.002.005A49.927 49.927 0 0 0 49.998 0 49.67 49.67 0 0 0 27.63 5.302l.55 1.052a48.527 48.527 0 0 1 21.216-5.135v9.017a39.515 39.515 0 0 0-17.025 4.128l.547 1.049a38.375 38.375 0 0 1 16.478-3.974v8.164a30.216 30.216 0 0 0-12.685 3.059l.263.502-.263-.503a30.553 30.553 0 0 0-7.77 5.428l-5.783-5.782a38.53 38.53 0 0 1 9.759-6.894l-.547-1.049a39.968 39.968 0 0 0-10.051 7.104l-6.388-6.387a48.824 48.824 0 0 1 12.248-8.727l-.55-1.052A50.321 50.321 0 0 0 5.144 27.939l.565.305-.565-.305A49.677 49.677 0 0 0 0 49.996c0 4.841.691 9.571 2.012 14.092l1.181-.297a48.942 48.942 0 0 1-1.974-13.192h9.015a39.857 39.857 0 0 0 1.705 10.989l1.169-.294a38.653 38.653 0 0 1-1.67-10.695h8.164c.023 1.202.136 2.388.297 3.562-.573.063-1.116.249-1.116.249l-.243.834c-.554.102-.902 1.007-.902 1.007-.454.153-.811.714-.66.868.151.153-.278.208-.278.208v1.146l-.243.348.069 1.215c.303 0 .243.59.243.59-.504.052-.417.695-.417.695l-1.042.382-.208.277-1.319-.034-.339.338c-.11-.328-.231-.654-.333-.987l-1.169.295c.036.12.081.235.119.354h-1.506l-.104-.243-.486-.104-.069-.59-.764.069-.139.312-.799.034c.051.513-.803 1.28-.902 1.076-.102-.205-.669-.766-.417-.867.252-.104.903-.209.903-.209v-.347l-1.84-.069-.208.312-.764.069v.798l-.347.104c-.252.153.035.729.035.729.354.357-.035.902-.035.902-.303.308.243.903.243.903.404.102-.243.382-.243.382.099.513.381.66.381.66-.304.513.208.799.208.799l.069.868.347.208v.556l.208.347h.799l-.07-1.284c-.706-.819.608-1 .66-.694.051.307.625.451.625.451.101.769.964 1.219 1.215.451.252-.768.439-.288.59.069.151.358 1.111 1.216 1.111 1.216h.764l.104.729c.857-.052 1.105.039 1.458 1.216.354 1.176 1.319 1.493 1.319 1.493l.694-.07c0-.612.694.11.694.417 0 .306 1.354 1.493 1.354 1.493l1.389.312.286.229a40.416 40.416 0 0 0 2.63 3.017l-6.375 6.376C9.441 78.284 5.411 71.347 3.196 63.793l-1.181.297c2.324 7.952 6.611 15.241 12.632 21.262a50.082 50.082 0 0 0 13.792 9.781l.598-1.062a48.779 48.779 0 0 1-13.103-9.155l6.375-6.374a39.746 39.746 0 0 0 11.175 7.647l.595-1.055a38.594 38.594 0 0 1-10.918-7.444l1.18-1.179c.062.113.114.252.138.432.1.768.451.625.451.625l2.882-.069 1.007-.868 2.569-.035c1.312-.051.495-1.875.243-1.875-.151-.118-.176-.363-.151-.635a30.22 30.22 0 0 0 6.63 3.904l.595-1.054c-2.825-1.186-5.448-2.846-7.81-4.897l-1.079-.997 6.347-6.347a20.086 20.086 0 0 0 7.018 4.314c.706.253 1.43.451 2.163.624-.129.114-.201.221-.171.296.101.256-.417.521-.417.521l-.452.139-.312.452-.59.208-.104 1.076-.312.208v.452l-.347.104v.278l-.521.034.312.764.417.209c.706.102.382.972.382.972l.417.069.208.556.382.799c.152.615.631.468.833.417.202-.05.382.625.382.625l2.014.034s-.075.211.278.312c.195.057.978.117 1.66.136v.899a29.066 29.066 0 0 1-10.694-2.252l-.595 1.055a30.295 30.295 0 0 0 11.289 2.401v8.164a38.413 38.413 0 0 1-15.319-3.422l-.595 1.055a39.61 39.61 0 0 0 15.914 3.572v9.015c-7.161-.086-14.071-1.709-20.36-4.706l-.599 1.062C35.088 98.318 42.416 100 50.003 100c7.958 0 15.627-1.86 22.528-5.352l-.569-1.104a48.446 48.446 0 0 1-21.356 5.237v-9.015a39.72 39.72 0 0 0 10.698-1.632l.881.267.278.833.382-.069.312-.243 1.215-.069.591-.556.659-.104 4.713-4.009a39.824 39.824 0 0 0 7.359-5.637l6.358 6.358a49.015 49.015 0 0 1-12.09 8.639l.57 1.104a50.125 50.125 0 0 0 12.823-9.292 50 50 0 0 0 9.654-13.546l-.003-.01-1.089-.594zm-17.226-9.407a29.292 29.292 0 0 1-5.587 8.34c-.101-1.023-.344-2.153-.344-2.153l-.382-.208.104-1.216h-.556l-.903 1.181-.109.315-.521-.521.249-.281-.034-.59.347-.312v-.521l.312-.104.035-1.111.277-.069v-2.465l-.764-.694c-.05.256-.868.243-.868.243s-.195.347-.347.347.206.49.104.799c-.1.306-.521.277-.521.277l-.764.209-.174.277h-.833l-.052-.494c.065-.078.135-.153.2-.232l.685-.211.486-.243.243-.521c.05-.511.659-.451.659-.451s1.166-.964 1.216-1.424c.052-.461.475-1.771 1.181-1.771h1.284c.504-.205.382-.868.382-.868l.625-.104.104.382s.907.085 1.007-.069c.102-.152.303-.501.556-.347.251.153 1.076-.348 1.076-.348.05-.358 1.319-.208 1.319-.208l.139-.486s-.854-1.146-1.007-1.146c-.151 0-.975-.742-1.076-.486-.807-.204-.729-1.319-.729-1.319l-.312-.729c0-.41-.751-1.282-.902-1.18-.314-.234-.396-.479-.378-.69h7.068a28.974 28.974 0 0 1-2.495 11.202zm-27.596-8.778l.208-.243-.104-.347c-.404-.154-.218-.519.035-.417.252.103-.347-.451-.347-.451-.302.256-.556-.312-.556-.312h-.764v-.729l-.104-.659-.729-.347-.556.484-.104.729v.451l-.521.104-.104 1.389-.382.173.035.486-.556.174-.556.139-.104.66-.382.277-.208.591-.239 1.471a9.606 9.606 0 0 1-1.735-2.512c.089-.359.099-.695.099-.695-.453-.204-.192-.927.312-.312.504.613-.312-1.216-.312-1.216l-.417-.347-.498-.066a9.679 9.679 0 0 1-.127-1.5c0-.213.018-.424.031-.636.146-.127.315-.055.315-.055l.278.243.486.347.035.312-.312.174-.035.417.139.556h.417c.151-.819 1.191-.825 1.493-.312l.312-.729c-.706-.358.006-.916.208-.66.202.256.66-.66.66-.66s.095.1.139.139a1.814 1.814 0 0 0-.139-.277c-.354-.615.243-.938.243-.938-.1-.614.66-.521.66-.521l.035-.798-.695-.07c-.15.717-.754.119-.451-.035s.59-.486.59-.486v-.486l.312-.104.069-.521h.731l.66-.312.174-.243.694-.07 1.007-.903-.104-.417c-.605 0 0-.451 0-.451l.104-.764h-.556l-.099-1.089a9.613 9.613 0 0 1 2.116-.262l.101 1.213-.556-.174h-.347l-.173-.312-.278-.035v1.111l.278.243.278.277.486.035.104.625 1.25.035.173.277.765.035 1.458 1.493-.104.452-.243.173c.103.358-.659.139-.659.139v.312l.347.035.348.208.521-.868c.555-.358.781.144.833.451.051.307-.242.278-.242.278v.694l.312.104c.505.614-.209.972-.209.972l-.139.521c-.152.46-.729.347-.729.347l-.208.312-.59.174 1.18.139c.114-.41.438-.518.591-.312.151.205.139.59.139.59l.312.035-.069.555.312.104v1.632l.348.417c.604-.255.616.143.312.347-.301.204-.104 1.146-.104 1.146l-.243.243v.417l-.312.208v.556c-.505-.256-1.098-.154-1.25 0-.453-.307-1.424-.187-1.424.069.302.41-.347.486-.347.486l-.348.417c.253.512-.243.556-.243.556v.972l-.627.591.046.888a9.537 9.537 0 0 1-7.296-2.356.242.242 0 0 0 .097-.093c.252-.409.66-.452.66-.452l.139-.347 1.354.034c.101-.563.764-.359.764-.104s.521.069.521.069l.347-.556h.556l.035-.625.278-.174v-.902c.807-.255.694-1.041.694-1.041zm-19.222-4.288c-.081.157-.152.26-.152.26-.059.089-.09.238-.108.4h-1.915l.009-.053-.556-.035c-.605-.359-.312-1.701-.312-1.701.958-1.434 2.083-.625 2.083-.625l.694-.035c.187.126.294.274.372.428-.058.449-.087.905-.115 1.361zm10.75-6.788c-.202.46-.694-.069-.694-.069-.1-.307-.833 0-.833 0 0 .563-.938-.243-.938-.243l-1.771-1.285c-1.009-.921-2.52.265-2.569.521.027.387-.318.394-.643.32a18.996 18.996 0 0 1 2.982-4.181l4.955 4.955-.489-.018zm-2.257 9.409l.173-.312.092-.443h.573c.02.365.063.726.119 1.081l-.333.091-.104-.208-.139.556h-.903l-.035-.625.557-.14zm22.71-28.381a28.986 28.986 0 0 1 6.872 4.008c.052.357.452.52.452.52l.192.017c.183.151.357.312.536.468v.384c.353-.089.896.313.994.656l-6.283 6.284a20.163 20.163 0 0 0-6.059-3.942 20.138 20.138 0 0 0-7.18-1.542v-9.015c3.65.073 7.188.815 10.476 2.162zm-7.19 37.443l.243.104-.451.347-.417.452-.486-.14-.625-.069-.173-.347-.383-.035-.034.694-.243.312-.625.625c.643 0 .217.349-.087.491v-2.056a10.916 10.916 0 0 0 1.916-.281c.068.063.115.109.115.109h.451l.02-.269c.236-.07.47-.152.7-.238.011.145.079.301.079.301zm3.454-27.927a18.93 18.93 0 0 1 5.647 3.672l-.329.33c-.171-.162-.717-.269-.717-.448 0-.154-.262-.326-.383-.278-.04.016-.082.062-.069.139.05.307-.349.449-.451.347-.1-.103-.417.312-.417.312 0 .153-.093.365.209.417.304.05.853-.203.902.104.018.104.034.193.057.275l-1.967 1.967a3.297 3.297 0 0 1-.555-.02c-.151.461-.861-.04-.66-.347.202-.307.209-.521.209-.521l-.243-.035-.312.556c-.706 0-.916.403-.764.66.151.255-.176-.045-.278.312-.1.358.045.367.348.521.303.154-.167.161.034.417.132.167.428.114.525.153l-.371.371c-.347.116-.744.031-.744.031-.011.105-.074.178-.158.23a10.781 10.781 0 0 0-2.651-1.615c.156-.118.425-.1.553-.456.203-.563.277-1.493.277-1.493s-.208-.019-.416 0c-.209.019-.392.081-.417.208-.05.256-.556.417-.556.417s-.43.142-.277.347c.151.205-.278.312-.278.312s.021.138.003.27a10.81 10.81 0 0 0-2.49-.437V31.03c2.35.074 4.624.573 6.739 1.459zm5.33 7.303c-.352.668-1.121-.069-1.08-.541l1.323-1.325c.08.009.162.026.243.026.302 0 .972-.104.972-.104s.277.04.517.105c.243.294.479.591.702.896l-.628-.099-.382-.035-.764-.069c-.756.513-.903 1.146-.903 1.146zm-8.88 19.041c-.296.128-.6.242-.91.34v-1.117l.486-.556c.526-.177.452.938.424 1.333zm7.525 7.883c.029-.02.062-.037.091-.058l1.195.598c.152.204.799.174.799.174l.208.243s.407-.065.66.243c.251.307 1.562.069 1.562.069l.347.312.556.208.941.021.576.577c-.908.423-2.756.285-2.872.166-.151-.153-1.215-.625-1.215-.625s-.785-.656-.938-.451-.868-.258-.868-.104c0 .153-.659-.348-.659-.348l-1.007-.382.764-.139-.14-.504zM65.9 40.139c.151.769.399 1.077-.104 1.077-.506 0-.625-.417-.625-.417s-.382-.135-.382.069c0 .205-.152.594 0 .798.15.205-.23.536-.382.382-.149-.153-.553-.645-.451-.798.1-.154-.703-1.097.104-1.25.808-.153-.025-.627.278-.729l.382-.208h.416l.227-.193c.198.272.389.549.571.832a.78.78 0 0 0-.034.437zM51.109 65.624l1.146-.243c.1-.512.625.104.625.104.505-.052.59.277.59.277l.66.104c.554.154.21.215.243.417.05.306.312.208.312.208l.104-.659.312.034-.312-.347-.555-.243-.591-.278c-.403-.562.083-.434.486-.382h.659s.765.994.765 1.25.347.314.347.314l.451-.034.14.347h.451l.174.312h.902l.034-.451-.833-.174-.069-.486-.59-.173c-.202-.869.13-1.14.382-.729l.312.069-.104-.764.348-.104-.104-1.076-.277-.104v-.347l1.249.034c-.1-.666.07-.972.07-.972h.347l.035.277 1.562.14h.069c.605.357.306.8.104.902-.201.102-.555.104-.555.104l-.104.208-1.319.104-.104.521c-.655-.104-.916.614-.764.972.151.358 0 .66 0 .66l.556.277.729-.208c.103-.512.534-.632.938-.938.404-.307 1.07.562.868.973l-.057.124a18.934 18.934 0 0 1-2.435 1.423 18.904 18.904 0 0 1-4.253 1.457c-.017-.011-.026-.019-.026-.019l-.556-.174-.034-.764c-.102-.512-1.058-.497-1.007-.139.049.349-1.728.152-1.823.141v-1.407l.502-.538zm-.504 12.364c.332-.245 1.279-.259 1.719.066.554.408 1.319.173 1.319.173l.537.665c-1.172.17-2.363.276-3.575.301v-1.205zm22.48-28.599c.063-.088.105-.152.105-.152l.243-.694.868-.278.104-.66-.451-.035s.511-.938.764-.938 1.899-.002 2.049-.104c.152-.102.451-.923.451-1.076s.406-.191.556-.243c.152-.05.524-.455.625-.66.101-.206-.25-1.49-.451-1.285-.202.205-.66.312-.66.312l-.173.556-.243.208s.05.162 0 .521c-.05.358-.486.556-.486.556l-.208.243s-1.209.065-1.354 0c-.453-.205-.164-.815.139-.764.302.052-.034-.868-.034-.868l.382-.035s.057-.937.208-.937c.152 0-.041-.298-.243-.452-.201-.153-.458-.676-.659-.625-.202.051-1.007 0-1.007 0l-.174.312-.556.104s.062.405-.035.521c-.304.358-1.476 1.105-.972-.173l.174-.312v-.452l-.903-.035s-.451-.177-.451-.382-.069-.452-.069-.452l-1.042-1.18-1.284-.139-.104-.277-.729-.104a1.911 1.911 0 0 0-.363-.137 20.346 20.346 0 0 0-1.132-1.624 1.726 1.726 0 0 1-.033-.114c-.045-.183-.613-.976-.912-.993-.114-.128-.215-.266-.333-.391l6.273-6.272c.211.193.182.27.458.47a.621.621 0 0 0 .273.117c.169.187.338.375.501.565l-.115.151c0 .579.27.414.539.361.086.104.175.208.259.313.024.34.031.816.557.749h.013c.66.888 1.27 1.807 1.821 2.757l.006.021h.006c.087.149.17.3.254.451-.099.104-.155.209-.155.209l-.833.104v.833l-.383.139.035.521.556-.069s.021.637.174.382c.151-.256 1.387.045 1.284.66-.041.252 1.263.917 1.111 1.736a.71.71 0 0 1 .241.083c.243.703.463 1.413.652 2.135l-.095.178s.072.042.169.128c.169.674.321 1.352.441 2.039-.049.525-.175 1.01-.438 1.166-.605.358.035.139.035.139l-.104 1.146c.152.512.404.256.556 0 .08-.136.166-.213.259-.292.076.768.133 1.54.149 2.32h-6.106zm6.911-4.736c-.15-.153.174-.868.174-.868s.202-.424 0-.833c-.201-.41.021-.871.174-1.076l-.382-.208-.417-.035-.305.047c-.091-.319-.202-.631-.303-.947l.018-.038.243.069v-.312l-.398-.124a37.336 37.336 0 0 0-.19-.564l-.072-1.117-.347-.243.104-.417-.416-.139.208-.694-.347-.694h-.514a30.203 30.203 0 0 0-.765-1.444.8.8 0 0 1 .201-.083c.278-.077.386-.11.417-.104l-.035-.521-.451-.312-.174-.625s-.535.11-.485.417c.012.073-.03.129-.104.175a32.055 32.055 0 0 0-1.108-1.665c.011-.024.02-.049.032-.073.202-.358.11-.592-.243-.694-.354-.103-.352-.076-.451-.486-.1-.409-.521-.521-.521-.521l-.139-.625-.38.24c-.195-.225-.398-.444-.601-.664l.183-.583a.46.46 0 0 1-.352-.297l1.573-1.574c.704.414 1.226 1.38 1.139 1.559-.101.205.591.139.591.139.102-.922.957-.62 1.007-.312.052.307.208.972.208.972l.243.486.382.347.556-.07.139.312.66.104s.54.61.59.764c.051.153.805.123 1.007.174s.506.196.556.451c.051.256.382.66.382.66s.574.177.625.382c.05.205.312.66.312.66l.521.417.035.451.556.035.139.625.938-.069.486-.347c.152-.083.293-.171.423-.261.184.419.368.838.536 1.263a38.484 38.484 0 0 1 2.705 13.629h-8.163c-.028-1.429-.183-2.833-.404-4.221.051-.23.087-.435.004-.518zm15.253-12.932a48.688 48.688 0 0 1 3.528 17.667h-9.016a39.7 39.7 0 0 0-2.802-14.104 37.303 37.303 0 0 0-.812-1.886c.075-.278.217-.582.549-.48.504.154.174-1.111.174-1.111s-.709-.507-.659-.764c.05-.255-.71-.767-.66-.972s-.64-.628-.59-.833-.382-.764-.382-.764l-.729-.729-.104-.451-.625-.07-1.215-1.458.069-.417-.347-.07v-.555l-.348-.208-.556-.035-1.111-1.25-.104-.556h-.556l.085-.873 5.875-5.876a48.632 48.632 0 0 1 10.336 15.795zM50.6 1.218a48.704 48.704 0 0 1 17.635 3.515l.002-.005a48.646 48.646 0 0 1 15.826 10.346l-5.402 5.403c-.193.049-.396.073-.539.011-.354-.153.173-.521.173-.521v-.417l-.312-.312s-.853.119-.902-.035c-.05-.154-.208-.833-.208-.833l-.035-.868-.347-.139-.07-.312-.555.069v-.625l-.312-.104-.278-.139-.069-.625-1.111-.069-.347-.486-.417-.625-1.25-.104-.312-.312-.486-.104-.347-.139-.177.242-.938.069-.069.278c-.302.153-1.141.143-1.779.143a39.892 39.892 0 0 0-3.034-1.39l-.44 1.121c.837.339 1.656.718 2.467 1.116-.058.167-.126.295-.233.295-.252 0-.139.66-.139.66s.666.019.868.069c.201.05.173.556.173.556.758-.051 1.074.994.973 1.25-.101.256.312.243.312.243s-.002.802-.104 1.007c-.1.205.632.388.833.694.202.307-.092 1.303-.242 1.354-.152.051.396.23.347.486-.051.257.158-.027.208.382.051.409.174 1.285.174 1.285l.694.07c.103-.666 1.385-.702 1.598-.625.857.307 1.527 1.637 1.527 1.944s-.556.347-.556.347l.024.34-1.781 1.781c-.18-.108-.361-.17-.465-.107-.252.153-.139-1.076-.139-1.076s.457-.327.659-.174c.202.152-1.714-2.548-2.118-2.293-.403.256-1.334-.233-1.284-.694.05-.46-1.806-2.014-1.806-2.014s-.343-.223-.556-.208c-.071.005-.113.027-.139.104-.101.307-.303.507 0 .66.302.154.237-.254.59.104.354.358 1.016.838.765 1.146a1.148 1.148 0 0 1-.556.382l.347.417h.556l.104.868s.611.302.764.66c.102.241.109.417.075.574a30.174 30.174 0 0 0-3.513-2.312.707.707 0 0 0 0-.311c-.101-.358.408-.479.66-.069l.485-.069.104-.452-.694-.555h-.556s-.062.397-.417.243c-.354-.154-.149-.087-.451-.139-.267-.045-.21.5-.159.772a29.956 29.956 0 0 0-2.384-1.109 30.333 30.333 0 0 0-10.916-2.246V15.11c.319.004.473-.11.508-.247.05-.205.112-.262.416-.312.302-.051-.08-.676-.382-.625-.224.038-.429-.031-.542-.172V11.44c4.84.074 9.533 1.04 13.899 2.809l.44-1.121a39.682 39.682 0 0 0-14.34-2.893V1.218zM37.262 23.714a29.047 29.047 0 0 1 12.134-2.907v9.016a20.075 20.075 0 0 0-7.947 1.893l.554 1.058a18.886 18.886 0 0 1 7.394-1.747v8.179a10.71 10.71 0 0 0-3.033.622h-.045l-.035-.556.243-.174-.417-.139-.312.417-.069.452-.521.104v.243h-.347v.321c-.744.403-1.438.887-2.063 1.448l-5.786-5.786a18.926 18.926 0 0 1 4.993-3.383l-.554-1.058a20.26 20.26 0 0 0-5.285 3.595l-6.381-6.381a29.129 29.129 0 0 1 7.477-5.217zm-1.95 12.449a20.31 20.31 0 0 0-3.314 4.739c-.227-.006-.442.036-.506.209-.151.409-.799.312-.799.312l-.104.208-.521.104-.104.312-.59.07 1.528-.035c.403-.051-.165.884-.417.833l-.695.035-.278.243h-.66l-.277.417-.972-.035s-.537.437-.486.59c.05.153-.126.625-.278.625-.151 0-.448.471-.347.625.102.153-.312.66-.312.66l-.069.521-.312.104v1.354l-.625.417v.625l-.275.296h-4.091a29.056 29.056 0 0 1 2.639-11.565 29.14 29.14 0 0 1 5.484-8.046l6.381 6.382zM24.374 50.902l-.764.799.104.833-.452.14-.104.347-.174 1.076.486.069c.251-.102.202.662 0 .765-.203.102-.755.316-.452.521.303.206-.798.134-.798-.174 0-.306-.613-.553-.764-.451-.083.056-.197-.082-.286-.221a29.381 29.381 0 0 1-.365-4.007h3.529l.04.303zm-14.138-1.508H1.219a48.537 48.537 0 0 1 4.971-20.89 48.8 48.8 0 0 1 8.889-12.574l6.388 6.388a39.887 39.887 0 0 0-7.324 10.483 39.535 39.535 0 0 0-3.907 16.593zm1.203 0a38.367 38.367 0 0 1 3.749-16.028 38.571 38.571 0 0 1 7.119-10.208l5.783 5.782a30.503 30.503 0 0 0-5.688 8.323 30.188 30.188 0 0 0-2.797 12.131h-8.166zm9.505 25.952h.201c.251-.871 1.462.04 1.562.348.039.118.183.269.35.398l-.748.747a38.285 38.285 0 0 1-1.365-1.493zm7.987-5.134a30.679 30.679 0 0 1-1.188-1.317c.075-.325.276-.666.276-.666.655-.41-.174-1.076-.174-1.076.102-.615-.347-1.319-.347-1.319-.907-.614-.66-1.806-.66-1.806v-.799c-.756-.716.312-.833.312-.833.353-.613-.243-1.076-.243-1.076l-.069-.66-.798-.104-.104-2.396-1.805-2.604c-.354-.104-.104-.729-.104-.729.454-.256-.104-.868-.104-.868l-.035-1.111 1.042-.104.243-.417h.521l-.07-1.354c.091-.239.229-.34.368-.374h.246c.144.03.254.096.254.096l.694.035.071-.131h2.407l.195 1.311-.625.556c-.555.308-.571 1.026.035 1.181.403.05.258 1.014-.347.348-.664 0-.095.471.104.625.908.461.694-.417.694-.417l.458-.367c.194 1.01.46 1.998.803 2.958a20.09 20.09 0 0 0 4.323 7.045l-6.373 6.373zm7.226-7.227a18.894 18.894 0 0 1-4.004-6.489 18.791 18.791 0 0 1-.857-3.299c.423.159.89.851.89.969 0 .154 2.014.035 2.014.035.555.358.764 1.285.764 1.285.556-.718 1.726-.063.868.347.806.512.799.973.799.973.656-.204.66.332.66.485 0 .154.208-.764.208-.764-.757-.562.99-.781.486.243l-.278.451.486.417.07 1.181c1.11-.103.798-1.493.798-1.493l.486-.104c0-.461.382-.208.382-.208-.243-1.197.222-1.709.539-1.916.403.75.892 1.458 1.472 2.104l-5.783 5.783zm.857.859l5.783-5.784a10.691 10.691 0 0 0 6.301 2.707l-.003.031s-.192.444.035.521c.22.073.17.125.271.234v.022l-.132.264c-.187-.254-.287.163-.174.277.115.115-.278.055-.278.209 0 .153-.114.236 0 .312s-.022.128-.173.242c-.152.115.625.14.625.14s-.154-.312.035-.312l.097.002v.498c-.067-.017-.129-.026-.201-.049v.382l-.417.035.347.416.271.023v.899c-.04.63-1.683.2-1.833.05l-.035.902-.312.069.07.625-.07.868.556-.104v.348l1.354.069.271-.29v.985l-.931.104-.382.208-.173-.312h-.382l-.255.34a18.972 18.972 0 0 1-3.495-.835 18.872 18.872 0 0 1-6.77-4.096zm13.591 16.553a30.355 30.355 0 0 0 4.172-.377l.116.256.868.243.59.139.209.902.451.035.139.556c.556.409-.139 1.284-.139 1.284v1.146l.382.173-.035.417.66.66.764.069 1.237 1.326a38.358 38.358 0 0 1-9.414 1.334v-8.163zm20.121 2.078v-.462c.908-.665.961-1.843.104-1.944-.65-.078-.362-.767.243-.868l.348-.174v-.451l1.181-1.076v-.8l-2.535-2.118c-.52-.192-.541-.833-.35-1.455.458-.391.916-.784 1.354-1.205l2.221 2.22c-.101.381-.455.593-.655.44.078.087.278.312.348.451.1.204.418.204.521 0 .067-.138.062-.385.081-.597l1.034 1.033c-.137.268-.269.537-.213.71l.452.208.069.868c.337.343 1.091.325 1.697.22l.205.205a38.568 38.568 0 0 1-6.105 4.795zm6.95-5.658l-.208-.208c-.031-.555-.076-1.298-.076-1.298l-.277-.278-.035-1.284c.176-.582-.686-1.401-.973-1.458-.041-.009-.056.008-.069.034-.101.204-.764.073-.764.278 0 .203-.41 1.204-.208 1.562.013.024.008.037.017.058l-3.167-3.165a30.365 30.365 0 0 0 5.852-8.673h-.001a30.283 30.283 0 0 0 2.626-11.791h8.163a38.336 38.336 0 0 1-3.622 15.705h.001a38.712 38.712 0 0 1-7.259 10.518z"></path><path d="M58.574 4.03l.069-.035.556-.382-.139-.243-.486.313-.313-.208-.174.243.417.277zM60.969 4.933l-.277-.278-.209.208.348.382.103.105.105-.105.52-.416-.208-.244zM59.824 5.627c-.252.103-.764.07-.764.07h-.903c-.024-.179-.236-.228-.451-.208s-.427.106-.451.208c-.051.205-.348.243-.348.243l-1.146.104c-.103.307-.713.517-.764.312-.111-.45-.762.559-.104.764.655.206 1.319 0 1.319 0l.139-.312 2.535.069c.203-.205.277-.521.277-.521s.616-.207.868-.104c.254.102.046-.727-.207-.625zM54.442 8.196v-.555l-.208-.208-.209-.729-.659-.208-.66.278-.694.451-.764.104-.382.451 1.597.174.312.486 1.146.104.764.798c.657.205.82-.128.416-.486l-.659-.66zM73.156 13.891l.765.243s.938 1.105.902.556c-.101-1.536-.823-1.568-1.076-1.875a.416.416 0 0 0-.312-.139c-.409-.008-.997.287-.938.59.049.256.255.522.659.625zM57.914 13.439l-.278-.139-.208.452.278.139zM59.476 14.307l-.347-.277s-.556-.055-.556-.208c0-.119-.27.356-.486.486.243.127.521.278.521.278.404 0 .66.332.66.486 0 .153.556.104.556.104l.069-.382-.417-.487zM56.942 14.203h-.069l-.522-.069v.312l.417.035.313.521.243-.174-.348-.556zM57.914 14.307c.025.019.073.006.104 0-.091-.046-.176-.13-.208-.139-.042-.009-.028.04.104.139zM45.449 16.356c.051.153.575.188.625.035.05-.154.245-.452-.208-.452-.454 0-.369-.262-.521-.417-.076-.076-.35-.113-.625-.104-.276.009-.54.048-.521.139.05.255.451.59.451.59s.749.055.799.209zM57.498 15.939v.452l.554.034-.138-.382zM63.226 20.835c-.252 0-.725-.316-.625-.521.102-.205-.868-.382-.868-.382s-.857-.832-.556-.729c.303.102.174-.347.174-.347s-.612.085-.764.035c-.152-.052-.104-.521-.104-.521s-.352-.057-.521-.035c-.057.007-.069-.004-.069.035 0 .153.178.18.277.486.103.307.066.8.521.902.453.103.538.212.59.417.05.205.625.243.625.243l.382.208 1.215 1.042v-.417s-.025-.416-.277-.416zM32.325 19.203l.243-.208-.313-.313-.208.243zM41.734 28.508l-.313-.278-.208.243.313.278zM41.074 29.029c.303 0-.243-.347-.243-.347s-.473.023-.556-.139l.035.486h.764zM73.503 28.578l.035.485.312-.034-.034-.486zM77.323 32.362l.521-.173s.028-.501-.174-.347c-.201.153-.353-.364-.555-.312-.202.051-.285-.196-.486-.452-.203-.256-.164-.298-.417-.451-.126-.077-.208-.111-.277-.104-.069.006-.104.036-.104.139 0 .205.241.299.139.556-.1.255.111.486.312.486.202 0 .354.106.556.208.201.101.332.245.485.45zM78.747 35.591c0 .153.312-.555.312-.555-.253-.205-.452-.694-.452-.694s-.277-.697-.277-.799c0-.103-.334-.227-.486-.278-.151-.051-.416-.486-.416-.486l-.591.035c.151.205.451.351.451.555 0 .205-.095.365.209.417.302.051.49-.048.59.208.101.256.119.663.069.868-.051.205.026.521.278.521s.313.055.313.208zM72.67 33.265l-.035-.313-.52.069.034.313zM72.948 33.334h.312v.243h-.312zM72.809 37.223s-.626.168-1.181-.139c-.554-.307.107-.417.208-.417.103 0 .55-.369.348-.625-.202-.256 0-.726 0-.521 0 .205.558.327.659.174.101-.153.01-.61-.242-.764s.444-.265.242-.521c-.201-.257-.312-.556-.312-.556s-.297.413-.902.208c0 0-.079.94-.382 1.146h-.729s.162.263.312.417c.152.154.493.456.14.66-.354.204.069.173.069.173s-.067 1.057-.521.903c-.453-.152-.59.559-.59.764s1.771.283 1.493 0c-.152-.153.208-.486.208-.486s1.207.104 1.458.104c.252 0 .465-.057.312-.312-.151-.256-.59-.208-.59-.208zM73.538 35.383h.312v.347h-.312zM74.51 35.695l-.277-.139-.14.313.243.139zM80.413 40.104c-.252-.051-.139-.798-.139-.798s.229-.972-.174-.972-.096-.507-.347-.66c-.253-.154-.108-.872-.209-1.076-.101-.205-.094-.437-.347-.59-.031-.019-.054-.04-.069-.035-.113.036.098.604-.035.694-.151.103-.265.298-.417.451-.151.154.312.367.312.521 0 .153.104.903.104.903s.367.177.417.382c.051.205-.014.608.139.66.15.051.449.247.347.451-.101.206-.104.625-.104.625l.208.451.417.243c.001 0 .15-1.198-.103-1.25zM66.385 37.015l.035.312.487-.069-.035-.313zM58.886 37.882c0 .154.354.312.556.312.201 0 .729-.417.729-.417s.271-.71.069-.66c-.201.051-.609.342-.659.035-.027-.152-.191-.172-.348-.172s-.312.035-.312.035l-.798.104-.07.347.556.069c-.001 0 .277.194.277.347zM55.795 37.677l-.104-.451.312-.072.104.451zM56.56 37.57l1.11-.035v-.312l-1.11.035zM48.192 37.327h.382v.312h-.382zM50.727 37.674l.347.07.069-.313-.347-.069zM51.733 37.883l-.347-.035.03-.312.348.034zM47.706 37.674l-.347-.034-.069.312.381.035zM55.484 37.709l.103.278.174-.07-.104-.277zM67.878 37.778l-.173.347.278.14.174-.383zM52.116 37.952h.416v.278h-.416zM47.428 38.091l-.416-.104-.07.312.382.104zM46.907 38.716l-.034-.313-.313.07.07.312zM52.567 38.438v.347h.312l-.035-.382zM68.191 38.612c-.252.051-.201.23 0 .486l.625-.069s.449-.229.348-.382c-.052-.077-.222-.104-.417-.104s-.43.043-.556.069zM80.864 43.785l.035-.382-.278-.035-.07.382zM80.691 44.861l-.278-.138-.139.312.277.139zM46.178 47.778l-.555-.07-.104.244h-.244l-.069.416h.313l.034.313-.208.208-.07.243-.416.104-.903.868-.069.417-.243.381-.313.765-1.041.034-.209.938.139.763.903.348.104-.521.313-.139.069-.521.174-.347.312-.347.104-.417.487-.312.624-.104.243-.313.105-.625.034-.451.208-.313.625-.243v-.972h-.312zM77.218 48.333l.556.105.035-.313-.556-.104zM76.003 48.472l-.173.07-.348.208-.347-.208-.138.277.381.243.07.07.104-.07.278-.173.035.104.312-.104-.104-.243zM54.268 53.507c.253.154.673-.209.417-.382-.756-.513-.701-1.171-.903-1.632-.043-.1-.124-.195-.208-.208-.084-.014-.167.073-.243.277v.659c0 .001.685 1.132.937 1.286zM27.672 55.694c.05.562.451-.348.451-.348v-3.472l-.938-.104.069.348h.243c.403.717.069 2.465.069 2.465s-.627.028-.729-.277c-.1-.308-.341.679-.139.833.204.152.925-.008.974.555zM51.109 54.166c.108.447.11-.711.312-.659.201.051.034-.729.034-.729l-.902.66c.453.051.503.525.556.728zM77.392 54.688c-.076-.23-.286-.33-.521-.312-.39.028-.833.334-.694.521.303.409.805.191 1.007.243.201.049.41.162.208-.452zM29.026 55.104c-.118 0-.208.09-.208.209s.09.243.208.243.208-.124.208-.243-.089-.209-.208-.209z"></path><path d="M28.297 57.604l.104-.486-.347-.139.07-.764.277-.069.07-.347-.764.52-.521-.312v1.215l.834 1.076zM47.116 57.083l-.451.035.069.729.278.243.555.174s.784-.22.833-.833l-1.181-.035-.103-.313zM28.505 58.923l-.347.035-.034.417.381.069zM91.732 59.409a.366.366 0 0 0-.174-.034c-.21.011-.451.114-.59.208l.139.243c.19-.131.464-.167.521-.139a.231.231 0 0 1-.035-.035l.312-.035a.275.275 0 0 0-.173-.208zM28.853 60.104c0-.12-.09-.208-.208-.208s-.208.087-.208.208c0 .119.09.209.208.209s.208-.09.208-.209zM28.992 60.972a.204.204 0 0 0-.208.208c0 .12.09.209.208.209s.243-.089.243-.209c0-.119-.125-.208-.243-.208zM47.845 62.465c.226-.039.368-.135.556-.174.19-.039.272-.354.347-.659.076-.308-.069-.452-.069-.452s-.185.308-.486 0a.253.253 0 0 0-.139-.069c-.255-.012-.456.771-.556.973 0-.001.12.42.347.381zM27.638 61.944l.416-.07v-.347l-.416.07zM94.996 64.201c-.007-.085-.01-.227-.069-.348l-.278.139c.034.068.028.139.035.209.008.089.019.212.104.277.055.041.127.05.209.035l-.035-.312c.024.004.028.047.035.069-.006-.01.001-.043-.001-.069zM94.335 64.514c.077.311.17.611.174.624l.312-.104a3.615 3.615 0 0 1-.208-.591l-.278.071zM70.969 64.722h.347v.972h-.347zM60.206 65.242l-.139-.243-.417.243.174.243zM92.913 65.693c-.024.241.039.543.277.591l.069-.312c-.023-.021-.046-.131-.035-.243l-.311-.036zM92.773 66.249c-.091.007-.238.105-.347.174-.303.192-.189.956 0 .764.188-.19.412.02.451-.556.019-.288-.012-.388-.104-.382zM54.094 67.465l.348-.556-.313-.104-.347.243.139.174zM80.274 70.381l.486.035.034-.417-.486-.069zM79.892 71.006l-.104.312c.024.009.069.012.104.035l.069.277c-.022.035-.05.047-.069.069l.208.208c.162-.18.216-.352.174-.521-.067-.258-.35-.369-.382-.38zM42.602 80.866l-.312.243-.139.139.139.105.347.278.174-.278-.174-.139.139-.105zM46.491 85.276l.243-.243.139-.138-.174-.105-.521-.243-.138.243.312.174-.104.103zM20.659 87.116l.382.625.069.451.486.174.209.278.347-.173-.243-.695-.66-.555z"></path></g></g><!----></svg>